0
SECTION
2
HEADER
9
$INSUNITS
70
4
0
ENDSEC
0
SECTION
2
TABLES
0
TABLE
2
LTYPE
0
LTYPE
72
65
70
64
2
CONTINUOUS
3
______
73
0
40
0
0
ENDTAB
0
TABLE
2
LAYER
0
ENDTAB
0
ENDSEC
0
SECTION
2
ENTITIES
0
LINE
8
0
10
3.025
20
-2.525
11
16.025
21
-2.525
0
LINE
8
0
10
3.025
20
-16.525
11
16.025
21
-16.525
0
LINE
8
0
10
2.525
20
-3.025
11
2.525
21
-16.025
0
LINE
8
0
10
16.525
20
-3.025
11
16.525
21
-16.025
0
ARC
8
0
10
3.025
20
-3.025
40
0.5
50
90
51
180
0
ARC
8
0
10
16.025
20
-3.025
40
0.5
50
0
51
90
0
ARC
8
0
10
3.025
20
-16.025
40
0.5
50
180
51
270
0
ARC
8
0
10
16.025
20
-16.025
40
0.5
50
270
51
0
0
LINE
8
0
10
22.075
20
-2.525
11
35.075
21
-2.525
0
LINE
8
0
10
22.075
20
-16.525
11
35.075
21
-16.525
0
LINE
8
0
10
21.575
20
-3.025
11
21.575
21
-16.025
0
LINE
8
0
10
35.575
20
-3.025
11
35.575
21
-16.025
0
ARC
8
0
10
22.075
20
-3.025
40
0.5
50
90
51
180
0
ARC
8
0
10
35.075
20
-3.025
40
0.5
50
0
51
90
0
ARC
8
0
10
22.075
20
-16.025
40
0.5
50
180
51
270
0
ARC
8
0
10
35.075
20
-16.025
40
0.5
50
270
51
0
0
LINE
8
0
10
41.125
20
-2.525
11
54.125
21
-2.525
0
LINE
8
0
10
41.125
20
-16.525
11
54.125
21
-16.525
0
LINE
8
0
10
40.625
20
-3.025
11
40.625
21
-16.025
0
LINE
8
0
10
54.625
20
-3.025
11
54.625
21
-16.025
0
ARC
8
0
10
41.125
20
-3.025
40
0.5
50
90
51
180
0
ARC
8
0
10
54.125
20
-3.025
40
0.5
50
0
51
90
0
ARC
8
0
10
41.125
20
-16.025
40
0.5
50
180
51
270
0
ARC
8
0
10
54.125
20
-16.025
40
0.5
50
270
51
0
0
LINE
8
0
10
60.175
20
-2.525
11
73.175
21
-2.525
0
LINE
8
0
10
60.175
20
-16.525
11
73.175
21
-16.525
0
LINE
8
0
10
59.675
20
-3.025
11
59.675
21
-16.025
0
LINE
8
0
10
73.675
20
-3.025
11
73.675
21
-16.025
0
ARC
8
0
10
60.175
20
-3.025
40
0.5
50
90
51
180
0
ARC
8
0
10
73.175
20
-3.025
40
0.5
50
0
51
90
0
ARC
8
0
10
60.175
20
-16.025
40
0.5
50
180
51
270
0
ARC
8
0
10
73.175
20
-16.025
40
0.5
50
270
51
0
0
LINE
8
0
10
83.9875
20
-2.525
11
96.9875
21
-2.525
0
LINE
8
0
10
83.9875
20
-16.525
11
96.9875
21
-16.525
0
LINE
8
0
10
83.4875
20
-3.025
11
83.4875
21
-16.025
0
LINE
8
0
10
97.4875
20
-3.025
11
97.4875
21
-16.025
0
ARC
8
0
10
83.9875
20
-3.025
40
0.5
50
90
51
180
0
ARC
8
0
10
96.9875
20
-3.025
40
0.5
50
0
51
90
0
ARC
8
0
10
83.9875
20
-16.025
40
0.5
50
180
51
270
0
ARC
8
0
10
96.9875
20
-16.025
40
0.5
50
270
51
0
0
LINE
8
0
10
107.8
20
-2.525
11
120.8
21
-2.525
0
LINE
8
0
10
107.8
20
-16.525
11
120.8
21
-16.525
0
LINE
8
0
10
107.3
20
-3.025
11
107.3
21
-16.025
0
LINE
8
0
10
121.3
20
-3.025
11
121.3
21
-16.025
0
ARC
8
0
10
107.8
20
-3.025
40
0.5
50
90
51
180
0
ARC
8
0
10
120.8
20
-3.025
40
0.5
50
0
51
90
0
ARC
8
0
10
107.8
20
-16.025
40
0.5
50
180
51
270
0
ARC
8
0
10
120.8
20
-16.025
40
0.5
50
270
51
0
0
LINE
8
0
10
126.85
20
-2.525
11
139.85
21
-2.525
0
LINE
8
0
10
126.85
20
-16.525
11
139.85
21
-16.525
0
LINE
8
0
10
126.35
20
-3.025
11
126.35
21
-16.025
0
LINE
8
0
10
140.35
20
-3.025
11
140.35
21
-16.025
0
ARC
8
0
10
126.85
20
-3.025
40
0.5
50
90
51
180
0
ARC
8
0
10
139.85
20
-3.025
40
0.5
50
0
51
90
0
ARC
8
0
10
126.85
20
-16.025
40
0.5
50
180
51
270
0
ARC
8
0
10
139.85
20
-16.025
40
0.5
50
270
51
0
0
LINE
8
0
10
145.9
20
-2.525
11
158.9
21
-2.525
0
LINE
8
0
10
145.9
20
-16.525
11
158.9
21
-16.525
0
LINE
8
0
10
145.4
20
-3.025
11
145.4
21
-16.025
0
LINE
8
0
10
159.4
20
-3.025
11
159.4
21
-16.025
0
ARC
8
0
10
145.9
20
-3.025
40
0.5
50
90
51
180
0
ARC
8
0
10
158.9
20
-3.025
40
0.5
50
0
51
90
0
ARC
8
0
10
145.9
20
-16.025
40
0.5
50
180
51
270
0
ARC
8
0
10
158.9
20
-16.025
40
0.5
50
270
51
0
0
LINE
8
0
10
164.95
20
-2.525
11
177.95
21
-2.525
0
LINE
8
0
10
164.95
20
-16.525
11
177.95
21
-16.525
0
LINE
8
0
10
164.45
20
-3.025
11
164.45
21
-16.025
0
LINE
8
0
10
178.45
20
-3.025
11
178.45
21
-16.025
0
ARC
8
0
10
164.95
20
-3.025
40
0.5
50
90
51
180
0
ARC
8
0
10
177.95
20
-3.025
40
0.5
50
0
51
90
0
ARC
8
0
10
164.95
20
-16.025
40
0.5
50
180
51
270
0
ARC
8
0
10
177.95
20
-16.025
40
0.5
50
270
51
0
0
LINE
8
0
10
184
20
-2.525
11
197
21
-2.525
0
LINE
8
0
10
184
20
-16.525
11
197
21
-16.525
0
LINE
8
0
10
183.5
20
-3.025
11
183.5
21
-16.025
0
LINE
8
0
10
197.5
20
-3.025
11
197.5
21
-16.025
0
ARC
8
0
10
184
20
-3.025
40
0.5
50
90
51
180
0
ARC
8
0
10
197
20
-3.025
40
0.5
50
0
51
90
0
ARC
8
0
10
184
20
-16.025
40
0.5
50
180
51
270
0
ARC
8
0
10
197
20
-16.025
40
0.5
50
270
51
0
0
LINE
8
0
10
203.05
20
-2.525
11
216.05
21
-2.525
0
LINE
8
0
10
203.05
20
-16.525
11
216.05
21
-16.525
0
LINE
8
0
10
202.55
20
-3.025
11
202.55
21
-16.025
0
LINE
8
0
10
216.55
20
-3.025
11
216.55
21
-16.025
0
ARC
8
0
10
203.05
20
-3.025
40
0.5
50
90
51
180
0
ARC
8
0
10
216.05
20
-3.025
40
0.5
50
0
51
90
0
ARC
8
0
10
203.05
20
-16.025
40
0.5
50
180
51
270
0
ARC
8
0
10
216.05
20
-16.025
40
0.5
50
270
51
0
0
LINE
8
0
10
222.1
20
-2.525
11
235.1
21
-2.525
0
LINE
8
0
10
222.1
20
-16.525
11
235.1
21
-16.525
0
LINE
8
0
10
221.6
20
-3.025
11
221.6
21
-16.025
0
LINE
8
0
10
235.6
20
-3.025
11
235.6
21
-16.025
0
ARC
8
0
10
222.1
20
-3.025
40
0.5
50
90
51
180
0
ARC
8
0
10
235.1
20
-3.025
40
0.5
50
0
51
90
0
ARC
8
0
10
222.1
20
-16.025
40
0.5
50
180
51
270
0
ARC
8
0
10
235.1
20
-16.025
40
0.5
50
270
51
0
0
LINE
8
0
10
241.15
20
-2.525
11
254.15
21
-2.525
0
LINE
8
0
10
241.15
20
-16.525
11
254.15
21
-16.525
0
LINE
8
0
10
240.65
20
-3.025
11
240.65
21
-16.025
0
LINE
8
0
10
254.65
20
-3.025
11
254.65
21
-16.025
0
ARC
8
0
10
241.15
20
-3.025
40
0.5
50
90
51
180
0
ARC
8
0
10
254.15
20
-3.025
40
0.5
50
0
51
90
0
ARC
8
0
10
241.15
20
-16.025
40
0.5
50
180
51
270
0
ARC
8
0
10
254.15
20
-16.025
40
0.5
50
270
51
0
0
LINE
8
0
10
260.2
20
-2.525
11
273.2
21
-2.525
0
LINE
8
0
10
260.2
20
-16.525
11
273.2
21
-16.525
0
LINE
8
0
10
259.7
20
-3.025
11
259.7
21
-16.025
0
LINE
8
0
10
273.7
20
-3.025
11
273.7
21
-16.025
0
ARC
8
0
10
260.2
20
-3.025
40
0.5
50
90
51
180
0
ARC
8
0
10
273.2
20
-3.025
40
0.5
50
0
51
90
0
ARC
8
0
10
260.2
20
-16.025
40
0.5
50
180
51
270
0
ARC
8
0
10
273.2
20
-16.025
40
0.5
50
270
51
0
0
LINE
8
0
10
279.25
20
-2.525
11
292.25
21
-2.525
0
LINE
8
0
10
279.25
20
-16.525
11
292.25
21
-16.525
0
LINE
8
0
10
278.75
20
-3.025
11
278.75
21
-16.025
0
LINE
8
0
10
292.75
20
-3.025
11
292.75
21
-16.025
0
ARC
8
0
10
279.25
20
-3.025
40
0.5
50
90
51
180
0
ARC
8
0
10
292.25
20
-3.025
40
0.5
50
0
51
90
0
ARC
8
0
10
279.25
20
-16.025
40
0.5
50
180
51
270
0
ARC
8
0
10
292.25
20
-16.025
40
0.5
50
270
51
0
0
LINE
8
0
10
298.3
20
-2.525
11
311.3
21
-2.525
0
LINE
8
0
10
298.3
20
-16.525
11
311.3
21
-16.525
0
LINE
8
0
10
297.8
20
-3.025
11
297.8
21
-16.025
0
LINE
8
0
10
311.8
20
-3.025
11
311.8
21
-16.025
0
ARC
8
0
10
298.3
20
-3.025
40
0.5
50
90
51
180
0
ARC
8
0
10
311.3
20
-3.025
40
0.5
50
0
51
90
0
ARC
8
0
10
298.3
20
-16.025
40
0.5
50
180
51
270
0
ARC
8
0
10
311.3
20
-16.025
40
0.5
50
270
51
0
0
LINE
8
0
10
317.35
20
-2.525
11
330.35
21
-2.525
0
LINE
8
0
10
317.35
20
-16.525
11
330.35
21
-16.525
0
LINE
8
0
10
316.85
20
-3.025
11
316.85
21
-16.025
0
LINE
8
0
10
330.85
20
-3.025
11
330.85
21
-16.025
0
ARC
8
0
10
317.35
20
-3.025
40
0.5
50
90
51
180
0
ARC
8
0
10
330.35
20
-3.025
40
0.5
50
0
51
90
0
ARC
8
0
10
317.35
20
-16.025
40
0.5
50
180
51
270
0
ARC
8
0
10
330.35
20
-16.025
40
0.5
50
270
51
0
0
LINE
8
0
10
336.4
20
-2.525
11
349.4
21
-2.525
0
LINE
8
0
10
336.4
20
-16.525
11
349.4
21
-16.525
0
LINE
8
0
10
335.9
20
-3.025
11
335.9
21
-16.025
0
LINE
8
0
10
349.9
20
-3.025
11
349.9
21
-16.025
0
ARC
8
0
10
336.4
20
-3.025
40
0.5
50
90
51
180
0
ARC
8
0
10
349.4
20
-3.025
40
0.5
50
0
51
90
0
ARC
8
0
10
336.4
20
-16.025
40
0.5
50
180
51
270
0
ARC
8
0
10
349.4
20
-16.025
40
0.5
50
270
51
0
0
LINE
8
0
10
355.45
20
-2.525
11
368.45
21
-2.525
0
LINE
8
0
10
355.45
20
-16.525
11
368.45
21
-16.525
0
LINE
8
0
10
354.95
20
-3.025
11
354.95
21
-16.025
0
LINE
8
0
10
368.95
20
-3.025
11
368.95
21
-16.025
0
ARC
8
0
10
355.45
20
-3.025
40
0.5
50
90
51
180
0
ARC
8
0
10
368.45
20
-3.025
40
0.5
50
0
51
90
0
ARC
8
0
10
355.45
20
-16.025
40
0.5
50
180
51
270
0
ARC
8
0
10
368.45
20
-16.025
40
0.5
50
270
51
0
0
LINE
8
0
10
374.5
20
-2.525
11
387.5
21
-2.525
0
LINE
8
0
10
374.5
20
-16.525
11
387.5
21
-16.525
0
LINE
8
0
10
374
20
-3.025
11
374
21
-16.025
0
LINE
8
0
10
388
20
-3.025
11
388
21
-16.025
0
ARC
8
0
10
374.5
20
-3.025
40
0.5
50
90
51
180
0
ARC
8
0
10
387.5
20
-3.025
40
0.5
50
0
51
90
0
ARC
8
0
10
374.5
20
-16.025
40
0.5
50
180
51
270
0
ARC
8
0
10
387.5
20
-16.025
40
0.5
50
270
51
0
0
LINE
8
0
10
16.525
20
-31.6
11
16.525
21
-44.6
0
LINE
8
0
10
2.525
20
-31.6
11
2.525
21
-44.6
0
LINE
8
0
10
16.025
20
-31.1
11
3.025
21
-31.1
0
LINE
8
0
10
16.025
20
-45.1
11
3.025
21
-45.1
0
ARC
8
0
10
16.025
20
-31.6
40
0.5
50
0
51
90
0
ARC
8
0
10
16.025
20
-44.6
40
0.5
50
270
51
0
0
ARC
8
0
10
3.025
20
-31.6
40
0.5
50
90
51
180
0
ARC
8
0
10
3.025
20
-44.6
40
0.5
50
180
51
270
0
LINE
8
0
10
15.525
20
-23.162
11
15.525
21
-29.162
0
LINE
8
0
10
0.525
20
-23.162
11
0.525
21
-29.162
0
LINE
8
0
10
15.025
20
-22.662
11
1.025
21
-22.662
0
LINE
8
0
10
15.025
20
-29.662
11
1.025
21
-29.662
0
ARC
8
0
10
15.025
20
-23.162
40
0.5
50
0
51
90
0
ARC
8
0
10
15.025
20
-29.162
40
0.5
50
270
51
0
0
ARC
8
0
10
1.025
20
-23.162
40
0.5
50
90
51
180
0
ARC
8
0
10
1.025
20
-29.162
40
0.5
50
180
51
270
0
LINE
8
0
10
15.525
20
-47.038
11
15.525
21
-53.038
0
LINE
8
0
10
0.525
20
-47.038
11
0.525
21
-53.038
0
LINE
8
0
10
15.025
20
-46.538
11
1.025
21
-46.538
0
LINE
8
0
10
15.025
20
-53.538
11
1.025
21
-53.538
0
ARC
8
0
10
15.025
20
-47.038
40
0.5
50
0
51
90
0
ARC
8
0
10
15.025
20
-53.038
40
0.5
50
270
51
0
0
ARC
8
0
10
1.025
20
-47.038
40
0.5
50
90
51
180
0
ARC
8
0
10
1.025
20
-53.038
40
0.5
50
180
51
270
0
LINE
8
0
10
22.075
20
-21.575
11
35.075
21
-21.575
0
LINE
8
0
10
22.075
20
-35.575
11
35.075
21
-35.575
0
LINE
8
0
10
21.575
20
-22.075
11
21.575
21
-35.075
0
LINE
8
0
10
35.575
20
-22.075
11
35.575
21
-35.075
0
ARC
8
0
10
22.075
20
-22.075
40
0.5
50
90
51
180
0
ARC
8
0
10
35.075
20
-22.075
40
0.5
50
0
51
90
0
ARC
8
0
10
22.075
20
-35.075
40
0.5
50
180
51
270
0
ARC
8
0
10
35.075
20
-35.075
40
0.5
50
270
51
0
0
LINE
8
0
10
41.125
20
-21.575
11
54.125
21
-21.575
0
LINE
8
0
10
41.125
20
-35.575
11
54.125
21
-35.575
0
LINE
8
0
10
40.625
20
-22.075
11
40.625
21
-35.075
0
LINE
8
0
10
54.625
20
-22.075
11
54.625
21
-35.075
0
ARC
8
0
10
41.125
20
-22.075
40
0.5
50
90
51
180
0
ARC
8
0
10
54.125
20
-22.075
40
0.5
50
0
51
90
0
ARC
8
0
10
41.125
20
-35.075
40
0.5
50
180
51
270
0
ARC
8
0
10
54.125
20
-35.075
40
0.5
50
270
51
0
0
LINE
8
0
10
60.175
20
-21.575
11
73.175
21
-21.575
0
LINE
8
0
10
60.175
20
-35.575
11
73.175
21
-35.575
0
LINE
8
0
10
59.675
20
-22.075
11
59.675
21
-35.075
0
LINE
8
0
10
73.675
20
-22.075
11
73.675
21
-35.075
0
ARC
8
0
10
60.175
20
-22.075
40
0.5
50
90
51
180
0
ARC
8
0
10
73.175
20
-22.075
40
0.5
50
0
51
90
0
ARC
8
0
10
60.175
20
-35.075
40
0.5
50
180
51
270
0
ARC
8
0
10
73.175
20
-35.075
40
0.5
50
270
51
0
0
LINE
8
0
10
83.9875
20
-21.575
11
96.9875
21
-21.575
0
LINE
8
0
10
83.9875
20
-35.575
11
96.9875
21
-35.575
0
LINE
8
0
10
83.4875
20
-22.075
11
83.4875
21
-35.075
0
LINE
8
0
10
97.4875
20
-22.075
11
97.4875
21
-35.075
0
ARC
8
0
10
83.9875
20
-22.075
40
0.5
50
90
51
180
0
ARC
8
0
10
96.9875
20
-22.075
40
0.5
50
0
51
90
0
ARC
8
0
10
83.9875
20
-35.075
40
0.5
50
180
51
270
0
ARC
8
0
10
96.9875
20
-35.075
40
0.5
50
270
51
0
0
LINE
8
0
10
112.5625
20
-21.575
11
125.5625
21
-21.575
0
LINE
8
0
10
112.5625
20
-35.575
11
125.5625
21
-35.575
0
LINE
8
0
10
112.0625
20
-22.075
11
112.0625
21
-35.075
0
LINE
8
0
10
126.0625
20
-22.075
11
126.0625
21
-35.075
0
ARC
8
0
10
112.5625
20
-22.075
40
0.5
50
90
51
180
0
ARC
8
0
10
125.5625
20
-22.075
40
0.5
50
0
51
90
0
ARC
8
0
10
112.5625
20
-35.075
40
0.5
50
180
51
270
0
ARC
8
0
10
125.5625
20
-35.075
40
0.5
50
270
51
0
0
LINE
8
0
10
136.375
20
-21.575
11
149.375
21
-21.575
0
LINE
8
0
10
136.375
20
-35.575
11
149.375
21
-35.575
0
LINE
8
0
10
135.875
20
-22.075
11
135.875
21
-35.075
0
LINE
8
0
10
149.875
20
-22.075
11
149.875
21
-35.075
0
ARC
8
0
10
136.375
20
-22.075
40
0.5
50
90
51
180
0
ARC
8
0
10
149.375
20
-22.075
40
0.5
50
0
51
90
0
ARC
8
0
10
136.375
20
-35.075
40
0.5
50
180
51
270
0
ARC
8
0
10
149.375
20
-35.075
40
0.5
50
270
51
0
0
LINE
8
0
10
155.425
20
-21.575
11
168.425
21
-21.575
0
LINE
8
0
10
155.425
20
-35.575
11
168.425
21
-35.575
0
LINE
8
0
10
154.925
20
-22.075
11
154.925
21
-35.075
0
LINE
8
0
10
168.925
20
-22.075
11
168.925
21
-35.075
0
ARC
8
0
10
155.425
20
-22.075
40
0.5
50
90
51
180
0
ARC
8
0
10
168.425
20
-22.075
40
0.5
50
0
51
90
0
ARC
8
0
10
155.425
20
-35.075
40
0.5
50
180
51
270
0
ARC
8
0
10
168.425
20
-35.075
40
0.5
50
270
51
0
0
LINE
8
0
10
174.475
20
-21.575
11
187.475
21
-21.575
0
LINE
8
0
10
174.475
20
-35.575
11
187.475
21
-35.575
0
LINE
8
0
10
173.975
20
-22.075
11
173.975
21
-35.075
0
LINE
8
0
10
187.975
20
-22.075
11
187.975
21
-35.075
0
ARC
8
0
10
174.475
20
-22.075
40
0.5
50
90
51
180
0
ARC
8
0
10
187.475
20
-22.075
40
0.5
50
0
51
90
0
ARC
8
0
10
174.475
20
-35.075
40
0.5
50
180
51
270
0
ARC
8
0
10
187.475
20
-35.075
40
0.5
50
270
51
0
0
LINE
8
0
10
193.525
20
-21.575
11
206.525
21
-21.575
0
LINE
8
0
10
193.525
20
-35.575
11
206.525
21
-35.575
0
LINE
8
0
10
193.025
20
-22.075
11
193.025
21
-35.075
0
LINE
8
0
10
207.025
20
-22.075
11
207.025
21
-35.075
0
ARC
8
0
10
193.525
20
-22.075
40
0.5
50
90
51
180
0
ARC
8
0
10
206.525
20
-22.075
40
0.5
50
0
51
90
0
ARC
8
0
10
193.525
20
-35.075
40
0.5
50
180
51
270
0
ARC
8
0
10
206.525
20
-35.075
40
0.5
50
270
51
0
0
LINE
8
0
10
212.575
20
-21.575
11
225.575
21
-21.575
0
LINE
8
0
10
212.575
20
-35.575
11
225.575
21
-35.575
0
LINE
8
0
10
212.075
20
-22.075
11
212.075
21
-35.075
0
LINE
8
0
10
226.075
20
-22.075
11
226.075
21
-35.075
0
ARC
8
0
10
212.575
20
-22.075
40
0.5
50
90
51
180
0
ARC
8
0
10
225.575
20
-22.075
40
0.5
50
0
51
90
0
ARC
8
0
10
212.575
20
-35.075
40
0.5
50
180
51
270
0
ARC
8
0
10
225.575
20
-35.075
40
0.5
50
270
51
0
0
LINE
8
0
10
231.625
20
-21.575
11
244.625
21
-21.575
0
LINE
8
0
10
231.625
20
-35.575
11
244.625
21
-35.575
0
LINE
8
0
10
231.125
20
-22.075
11
231.125
21
-35.075
0
LINE
8
0
10
245.125
20
-22.075
11
245.125
21
-35.075
0
ARC
8
0
10
231.625
20
-22.075
40
0.5
50
90
51
180
0
ARC
8
0
10
244.625
20
-22.075
40
0.5
50
0
51
90
0
ARC
8
0
10
231.625
20
-35.075
40
0.5
50
180
51
270
0
ARC
8
0
10
244.625
20
-35.075
40
0.5
50
270
51
0
0
LINE
8
0
10
250.675
20
-21.575
11
263.675
21
-21.575
0
LINE
8
0
10
250.675
20
-35.575
11
263.675
21
-35.575
0
LINE
8
0
10
250.175
20
-22.075
11
250.175
21
-35.075
0
LINE
8
0
10
264.175
20
-22.075
11
264.175
21
-35.075
0
ARC
8
0
10
250.675
20
-22.075
40
0.5
50
90
51
180
0
ARC
8
0
10
263.675
20
-22.075
40
0.5
50
0
51
90
0
ARC
8
0
10
250.675
20
-35.075
40
0.5
50
180
51
270
0
ARC
8
0
10
263.675
20
-35.075
40
0.5
50
270
51
0
0
LINE
8
0
10
269.725
20
-21.575
11
282.725
21
-21.575
0
LINE
8
0
10
269.725
20
-35.575
11
282.725
21
-35.575
0
LINE
8
0
10
269.225
20
-22.075
11
269.225
21
-35.075
0
LINE
8
0
10
283.225
20
-22.075
11
283.225
21
-35.075
0
ARC
8
0
10
269.725
20
-22.075
40
0.5
50
90
51
180
0
ARC
8
0
10
282.725
20
-22.075
40
0.5
50
0
51
90
0
ARC
8
0
10
269.725
20
-35.075
40
0.5
50
180
51
270
0
ARC
8
0
10
282.725
20
-35.075
40
0.5
50
270
51
0
0
LINE
8
0
10
288.775
20
-21.575
11
301.775
21
-21.575
0
LINE
8
0
10
288.775
20
-35.575
11
301.775
21
-35.575
0
LINE
8
0
10
288.275
20
-22.075
11
288.275
21
-35.075
0
LINE
8
0
10
302.275
20
-22.075
11
302.275
21
-35.075
0
ARC
8
0
10
288.775
20
-22.075
40
0.5
50
90
51
180
0
ARC
8
0
10
301.775
20
-22.075
40
0.5
50
0
51
90
0
ARC
8
0
10
288.775
20
-35.075
40
0.5
50
180
51
270
0
ARC
8
0
10
301.775
20
-35.075
40
0.5
50
270
51
0
0
LINE
8
0
10
307.825
20
-21.575
11
320.825
21
-21.575
0
LINE
8
0
10
307.825
20
-35.575
11
320.825
21
-35.575
0
LINE
8
0
10
307.325
20
-22.075
11
307.325
21
-35.075
0
LINE
8
0
10
321.325
20
-22.075
11
321.325
21
-35.075
0
ARC
8
0
10
307.825
20
-22.075
40
0.5
50
90
51
180
0
ARC
8
0
10
320.825
20
-22.075
40
0.5
50
0
51
90
0
ARC
8
0
10
307.825
20
-35.075
40
0.5
50
180
51
270
0
ARC
8
0
10
320.825
20
-35.075
40
0.5
50
270
51
0
0
LINE
8
0
10
326.875
20
-21.575
11
339.875
21
-21.575
0
LINE
8
0
10
326.875
20
-35.575
11
339.875
21
-35.575
0
LINE
8
0
10
326.375
20
-22.075
11
326.375
21
-35.075
0
LINE
8
0
10
340.375
20
-22.075
11
340.375
21
-35.075
0
ARC
8
0
10
326.875
20
-22.075
40
0.5
50
90
51
180
0
ARC
8
0
10
339.875
20
-22.075
40
0.5
50
0
51
90
0
ARC
8
0
10
326.875
20
-35.075
40
0.5
50
180
51
270
0
ARC
8
0
10
339.875
20
-35.075
40
0.5
50
270
51
0
0
LINE
8
0
10
345.925
20
-21.575
11
358.925
21
-21.575
0
LINE
8
0
10
345.925
20
-35.575
11
358.925
21
-35.575
0
LINE
8
0
10
345.425
20
-22.075
11
345.425
21
-35.075
0
LINE
8
0
10
359.425
20
-22.075
11
359.425
21
-35.075
0
ARC
8
0
10
345.925
20
-22.075
40
0.5
50
90
51
180
0
ARC
8
0
10
358.925
20
-22.075
40
0.5
50
0
51
90
0
ARC
8
0
10
345.925
20
-35.075
40
0.5
50
180
51
270
0
ARC
8
0
10
358.925
20
-35.075
40
0.5
50
270
51
0
0
LINE
8
0
10
369.7375
20
-21.575
11
382.7375
21
-21.575
0
LINE
8
0
10
369.7375
20
-35.575
11
382.7375
21
-35.575
0
LINE
8
0
10
369.2375
20
-22.075
11
369.2375
21
-35.075
0
LINE
8
0
10
383.2375
20
-22.075
11
383.2375
21
-35.075
0
ARC
8
0
10
369.7375
20
-22.075
40
0.5
50
90
51
180
0
ARC
8
0
10
382.7375
20
-22.075
40
0.5
50
0
51
90
0
ARC
8
0
10
369.7375
20
-35.075
40
0.5
50
180
51
270
0
ARC
8
0
10
382.7375
20
-35.075
40
0.5
50
270
51
0
0
LINE
8
0
10
22.075
20
-40.625
11
35.075
21
-40.625
0
LINE
8
0
10
22.075
20
-54.625
11
35.075
21
-54.625
0
LINE
8
0
10
21.575
20
-41.125
11
21.575
21
-54.125
0
LINE
8
0
10
35.575
20
-41.125
11
35.575
21
-54.125
0
ARC
8
0
10
22.075
20
-41.125
40
0.5
50
90
51
180
0
ARC
8
0
10
35.075
20
-41.125
40
0.5
50
0
51
90
0
ARC
8
0
10
22.075
20
-54.125
40
0.5
50
180
51
270
0
ARC
8
0
10
35.075
20
-54.125
40
0.5
50
270
51
0
0
LINE
8
0
10
41.125
20
-40.625
11
54.125
21
-40.625
0
LINE
8
0
10
41.125
20
-54.625
11
54.125
21
-54.625
0
LINE
8
0
10
40.625
20
-41.125
11
40.625
21
-54.125
0
LINE
8
0
10
54.625
20
-41.125
11
54.625
21
-54.125
0
ARC
8
0
10
41.125
20
-41.125
40
0.5
50
90
51
180
0
ARC
8
0
10
54.125
20
-41.125
40
0.5
50
0
51
90
0
ARC
8
0
10
41.125
20
-54.125
40
0.5
50
180
51
270
0
ARC
8
0
10
54.125
20
-54.125
40
0.5
50
270
51
0
0
LINE
8
0
10
60.175
20
-40.625
11
73.175
21
-40.625
0
LINE
8
0
10
60.175
20
-54.625
11
73.175
21
-54.625
0
LINE
8
0
10
59.675
20
-41.125
11
59.675
21
-54.125
0
LINE
8
0
10
73.675
20
-41.125
11
73.675
21
-54.125
0
ARC
8
0
10
60.175
20
-41.125
40
0.5
50
90
51
180
0
ARC
8
0
10
73.175
20
-41.125
40
0.5
50
0
51
90
0
ARC
8
0
10
60.175
20
-54.125
40
0.5
50
180
51
270
0
ARC
8
0
10
73.175
20
-54.125
40
0.5
50
270
51
0
0
LINE
8
0
10
83.9875
20
-40.625
11
96.9875
21
-40.625
0
LINE
8
0
10
83.9875
20
-54.625
11
96.9875
21
-54.625
0
LINE
8
0
10
83.4875
20
-41.125
11
83.4875
21
-54.125
0
LINE
8
0
10
97.4875
20
-41.125
11
97.4875
21
-54.125
0
ARC
8
0
10
83.9875
20
-41.125
40
0.5
50
90
51
180
0
ARC
8
0
10
96.9875
20
-41.125
40
0.5
50
0
51
90
0
ARC
8
0
10
83.9875
20
-54.125
40
0.5
50
180
51
270
0
ARC
8
0
10
96.9875
20
-54.125
40
0.5
50
270
51
0
0
LINE
8
0
10
114.94375
20
-40.625
11
127.94375
21
-40.625
0
LINE
8
0
10
114.94375
20
-54.625
11
127.94375
21
-54.625
0
LINE
8
0
10
114.44375
20
-41.125
11
114.44375
21
-54.125
0
LINE
8
0
10
128.44375
20
-41.125
11
128.44375
21
-54.125
0
ARC
8
0
10
114.94375
20
-41.125
40
0.5
50
90
51
180
0
ARC
8
0
10
127.94375
20
-41.125
40
0.5
50
0
51
90
0
ARC
8
0
10
114.94375
20
-54.125
40
0.5
50
180
51
270
0
ARC
8
0
10
127.94375
20
-54.125
40
0.5
50
270
51
0
0
LINE
8
0
10
141.1375
20
-40.625
11
154.1375
21
-40.625
0
LINE
8
0
10
141.1375
20
-54.625
11
154.1375
21
-54.625
0
LINE
8
0
10
140.6375
20
-41.125
11
140.6375
21
-54.125
0
LINE
8
0
10
154.6375
20
-41.125
11
154.6375
21
-54.125
0
ARC
8
0
10
141.1375
20
-41.125
40
0.5
50
90
51
180
0
ARC
8
0
10
154.1375
20
-41.125
40
0.5
50
0
51
90
0
ARC
8
0
10
141.1375
20
-54.125
40
0.5
50
180
51
270
0
ARC
8
0
10
154.1375
20
-54.125
40
0.5
50
270
51
0
0
LINE
8
0
10
160.1875
20
-40.625
11
173.1875
21
-40.625
0
LINE
8
0
10
160.1875
20
-54.625
11
173.1875
21
-54.625
0
LINE
8
0
10
159.6875
20
-41.125
11
159.6875
21
-54.125
0
LINE
8
0
10
173.6875
20
-41.125
11
173.6875
21
-54.125
0
ARC
8
0
10
160.1875
20
-41.125
40
0.5
50
90
51
180
0
ARC
8
0
10
173.1875
20
-41.125
40
0.5
50
0
51
90
0
ARC
8
0
10
160.1875
20
-54.125
40
0.5
50
180
51
270
0
ARC
8
0
10
173.1875
20
-54.125
40
0.5
50
270
51
0
0
LINE
8
0
10
179.2375
20
-40.625
11
192.2375
21
-40.625
0
LINE
8
0
10
179.2375
20
-54.625
11
192.2375
21
-54.625
0
LINE
8
0
10
178.7375
20
-41.125
11
178.7375
21
-54.125
0
LINE
8
0
10
192.7375
20
-41.125
11
192.7375
21
-54.125
0
ARC
8
0
10
179.2375
20
-41.125
40
0.5
50
90
51
180
0
ARC
8
0
10
192.2375
20
-41.125
40
0.5
50
0
51
90
0
ARC
8
0
10
179.2375
20
-54.125
40
0.5
50
180
51
270
0
ARC
8
0
10
192.2375
20
-54.125
40
0.5
50
270
51
0
0
LINE
8
0
10
198.2875
20
-40.625
11
211.2875
21
-40.625
0
LINE
8
0
10
198.2875
20
-54.625
11
211.2875
21
-54.625
0
LINE
8
0
10
197.7875
20
-41.125
11
197.7875
21
-54.125
0
LINE
8
0
10
211.7875
20
-41.125
11
211.7875
21
-54.125
0
ARC
8
0
10
198.2875
20
-41.125
40
0.5
50
90
51
180
0
ARC
8
0
10
211.2875
20
-41.125
40
0.5
50
0
51
90
0
ARC
8
0
10
198.2875
20
-54.125
40
0.5
50
180
51
270
0
ARC
8
0
10
211.2875
20
-54.125
40
0.5
50
270
51
0
0
LINE
8
0
10
217.3375
20
-40.625
11
230.3375
21
-40.625
0
LINE
8
0
10
217.3375
20
-54.625
11
230.3375
21
-54.625
0
LINE
8
0
10
216.8375
20
-41.125
11
216.8375
21
-54.125
0
LINE
8
0
10
230.8375
20
-41.125
11
230.8375
21
-54.125
0
ARC
8
0
10
217.3375
20
-41.125
40
0.5
50
90
51
180
0
ARC
8
0
10
230.3375
20
-41.125
40
0.5
50
0
51
90
0
ARC
8
0
10
217.3375
20
-54.125
40
0.5
50
180
51
270
0
ARC
8
0
10
230.3375
20
-54.125
40
0.5
50
270
51
0
0
LINE
8
0
10
236.3875
20
-40.625
11
249.3875
21
-40.625
0
LINE
8
0
10
236.3875
20
-54.625
11
249.3875
21
-54.625
0
LINE
8
0
10
235.8875
20
-41.125
11
235.8875
21
-54.125
0
LINE
8
0
10
249.8875
20
-41.125
11
249.8875
21
-54.125
0
ARC
8
0
10
236.3875
20
-41.125
40
0.5
50
90
51
180
0
ARC
8
0
10
249.3875
20
-41.125
40
0.5
50
0
51
90
0
ARC
8
0
10
236.3875
20
-54.125
40
0.5
50
180
51
270
0
ARC
8
0
10
249.3875
20
-54.125
40
0.5
50
270
51
0
0
LINE
8
0
10
255.4375
20
-40.625
11
268.4375
21
-40.625
0
LINE
8
0
10
255.4375
20
-54.625
11
268.4375
21
-54.625
0
LINE
8
0
10
254.9375
20
-41.125
11
254.9375
21
-54.125
0
LINE
8
0
10
268.9375
20
-41.125
11
268.9375
21
-54.125
0
ARC
8
0
10
255.4375
20
-41.125
40
0.5
50
90
51
180
0
ARC
8
0
10
268.4375
20
-41.125
40
0.5
50
0
51
90
0
ARC
8
0
10
255.4375
20
-54.125
40
0.5
50
180
51
270
0
ARC
8
0
10
268.4375
20
-54.125
40
0.5
50
270
51
0
0
LINE
8
0
10
274.4875
20
-40.625
11
287.4875
21
-40.625
0
LINE
8
0
10
274.4875
20
-54.625
11
287.4875
21
-54.625
0
LINE
8
0
10
273.9875
20
-41.125
11
273.9875
21
-54.125
0
LINE
8
0
10
287.9875
20
-41.125
11
287.9875
21
-54.125
0
ARC
8
0
10
274.4875
20
-41.125
40
0.5
50
90
51
180
0
ARC
8
0
10
287.4875
20
-41.125
40
0.5
50
0
51
90
0
ARC
8
0
10
274.4875
20
-54.125
40
0.5
50
180
51
270
0
ARC
8
0
10
287.4875
20
-54.125
40
0.5
50
270
51
0
0
LINE
8
0
10
293.5375
20
-40.625
11
306.5375
21
-40.625
0
LINE
8
0
10
293.5375
20
-54.625
11
306.5375
21
-54.625
0
LINE
8
0
10
293.0375
20
-41.125
11
293.0375
21
-54.125
0
LINE
8
0
10
307.0375
20
-41.125
11
307.0375
21
-54.125
0
ARC
8
0
10
293.5375
20
-41.125
40
0.5
50
90
51
180
0
ARC
8
0
10
306.5375
20
-41.125
40
0.5
50
0
51
90
0
ARC
8
0
10
293.5375
20
-54.125
40
0.5
50
180
51
270
0
ARC
8
0
10
306.5375
20
-54.125
40
0.5
50
270
51
0
0
LINE
8
0
10
312.5875
20
-40.625
11
325.5875
21
-40.625
0
LINE
8
0
10
312.5875
20
-54.625
11
325.5875
21
-54.625
0
LINE
8
0
10
312.0875
20
-41.125
11
312.0875
21
-54.125
0
LINE
8
0
10
326.0875
20
-41.125
11
326.0875
21
-54.125
0
ARC
8
0
10
312.5875
20
-41.125
40
0.5
50
90
51
180
0
ARC
8
0
10
325.5875
20
-41.125
40
0.5
50
0
51
90
0
ARC
8
0
10
312.5875
20
-54.125
40
0.5
50
180
51
270
0
ARC
8
0
10
325.5875
20
-54.125
40
0.5
50
270
51
0
0
LINE
8
0
10
331.6375
20
-40.625
11
344.6375
21
-40.625
0
LINE
8
0
10
331.6375
20
-54.625
11
344.6375
21
-54.625
0
LINE
8
0
10
331.1375
20
-41.125
11
331.1375
21
-54.125
0
LINE
8
0
10
345.1375
20
-41.125
11
345.1375
21
-54.125
0
ARC
8
0
10
331.6375
20
-41.125
40
0.5
50
90
51
180
0
ARC
8
0
10
344.6375
20
-41.125
40
0.5
50
0
51
90
0
ARC
8
0
10
331.6375
20
-54.125
40
0.5
50
180
51
270
0
ARC
8
0
10
344.6375
20
-54.125
40
0.5
50
270
51
0
0
LINE
8
0
10
362.59375
20
-40.625
11
375.59375
21
-40.625
0
LINE
8
0
10
362.59375
20
-54.625
11
375.59375
21
-54.625
0
LINE
8
0
10
362.09375
20
-41.125
11
362.09375
21
-54.125
0
LINE
8
0
10
376.09375
20
-41.125
11
376.09375
21
-54.125
0
ARC
8
0
10
362.59375
20
-41.125
40
0.5
50
90
51
180
0
ARC
8
0
10
375.59375
20
-41.125
40
0.5
50
0
51
90
0
ARC
8
0
10
362.59375
20
-54.125
40
0.5
50
180
51
270
0
ARC
8
0
10
375.59375
20
-54.125
40
0.5
50
270
51
0
0
LINE
8
0
10
354.15575
20
-41.625
11
360.15575
21
-41.625
0
LINE
8
0
10
354.15575
20
-56.625
11
360.15575
21
-56.625
0
LINE
8
0
10
353.65575
20
-42.125
11
353.65575
21
-56.125
0
LINE
8
0
10
360.65575
20
-42.125
11
360.65575
21
-56.125
0
ARC
8
0
10
354.15575
20
-42.125
40
0.5
50
90
51
180
0
ARC
8
0
10
360.15575
20
-42.125
40
0.5
50
0
51
90
0
ARC
8
0
10
354.15575
20
-56.125
40
0.5
50
180
51
270
0
ARC
8
0
10
360.15575
20
-56.125
40
0.5
50
270
51
0
0
LINE
8
0
10
378.03175
20
-41.625
11
384.03175
21
-41.625
0
LINE
8
0
10
378.03175
20
-56.625
11
384.03175
21
-56.625
0
LINE
8
0
10
377.53175
20
-42.125
11
377.53175
21
-56.125
0
LINE
8
0
10
384.53175
20
-42.125
11
384.53175
21
-56.125
0
ARC
8
0
10
378.03175
20
-42.125
40
0.5
50
90
51
180
0
ARC
8
0
10
384.03175
20
-42.125
40
0.5
50
0
51
90
0
ARC
8
0
10
378.03175
20
-56.125
40
0.5
50
180
51
270
0
ARC
8
0
10
384.03175
20
-56.125
40
0.5
50
270
51
0
0
LINE
8
0
10
16.525
20
-69.7
11
16.525
21
-82.7
0
LINE
8
0
10
2.525
20
-69.7
11
2.525
21
-82.7
0
LINE
8
0
10
16.025
20
-69.2
11
3.025
21
-69.2
0
LINE
8
0
10
16.025
20
-83.2
11
3.025
21
-83.2
0
ARC
8
0
10
16.025
20
-69.7
40
0.5
50
0
51
90
0
ARC
8
0
10
16.025
20
-82.7
40
0.5
50
270
51
0
0
ARC
8
0
10
3.025
20
-69.7
40
0.5
50
90
51
180
0
ARC
8
0
10
3.025
20
-82.7
40
0.5
50
180
51
270
0
LINE
8
0
10
15.525
20
-61.262
11
15.525
21
-67.262
0
LINE
8
0
10
0.525
20
-61.262
11
0.525
21
-67.262
0
LINE
8
0
10
15.025
20
-60.762
11
1.025
21
-60.762
0
LINE
8
0
10
15.025
20
-67.762
11
1.025
21
-67.762
0
ARC
8
0
10
15.025
20
-61.262
40
0.5
50
0
51
90
0
ARC
8
0
10
15.025
20
-67.262
40
0.5
50
270
51
0
0
ARC
8
0
10
1.025
20
-61.262
40
0.5
50
90
51
180
0
ARC
8
0
10
1.025
20
-67.262
40
0.5
50
180
51
270
0
LINE
8
0
10
15.525
20
-85.138
11
15.525
21
-91.138
0
LINE
8
0
10
0.525
20
-85.138
11
0.525
21
-91.138
0
LINE
8
0
10
15.025
20
-84.638
11
1.025
21
-84.638
0
LINE
8
0
10
15.025
20
-91.638
11
1.025
21
-91.638
0
ARC
8
0
10
15.025
20
-85.138
40
0.5
50
0
51
90
0
ARC
8
0
10
15.025
20
-91.138
40
0.5
50
270
51
0
0
ARC
8
0
10
1.025
20
-85.138
40
0.5
50
90
51
180
0
ARC
8
0
10
1.025
20
-91.138
40
0.5
50
180
51
270
0
LINE
8
0
10
22.075
20
-59.675
11
35.075
21
-59.675
0
LINE
8
0
10
22.075
20
-73.675
11
35.075
21
-73.675
0
LINE
8
0
10
21.575
20
-60.175
11
21.575
21
-73.175
0
LINE
8
0
10
35.575
20
-60.175
11
35.575
21
-73.175
0
ARC
8
0
10
22.075
20
-60.175
40
0.5
50
90
51
180
0
ARC
8
0
10
35.075
20
-60.175
40
0.5
50
0
51
90
0
ARC
8
0
10
22.075
20
-73.175
40
0.5
50
180
51
270
0
ARC
8
0
10
35.075
20
-73.175
40
0.5
50
270
51
0
0
LINE
8
0
10
41.125
20
-59.675
11
54.125
21
-59.675
0
LINE
8
0
10
41.125
20
-73.675
11
54.125
21
-73.675
0
LINE
8
0
10
40.625
20
-60.175
11
40.625
21
-73.175
0
LINE
8
0
10
54.625
20
-60.175
11
54.625
21
-73.175
0
ARC
8
0
10
41.125
20
-60.175
40
0.5
50
90
51
180
0
ARC
8
0
10
54.125
20
-60.175
40
0.5
50
0
51
90
0
ARC
8
0
10
41.125
20
-73.175
40
0.5
50
180
51
270
0
ARC
8
0
10
54.125
20
-73.175
40
0.5
50
270
51
0
0
LINE
8
0
10
60.175
20
-59.675
11
73.175
21
-59.675
0
LINE
8
0
10
60.175
20
-73.675
11
73.175
21
-73.675
0
LINE
8
0
10
59.675
20
-60.175
11
59.675
21
-73.175
0
LINE
8
0
10
73.675
20
-60.175
11
73.675
21
-73.175
0
ARC
8
0
10
60.175
20
-60.175
40
0.5
50
90
51
180
0
ARC
8
0
10
73.175
20
-60.175
40
0.5
50
0
51
90
0
ARC
8
0
10
60.175
20
-73.175
40
0.5
50
180
51
270
0
ARC
8
0
10
73.175
20
-73.175
40
0.5
50
270
51
0
0
LINE
8
0
10
119.70625
20
-59.675
11
132.70625
21
-59.675
0
LINE
8
0
10
119.70625
20
-73.675
11
132.70625
21
-73.675
0
LINE
8
0
10
119.20625
20
-60.175
11
119.20625
21
-73.175
0
LINE
8
0
10
133.20625
20
-60.175
11
133.20625
21
-73.175
0
ARC
8
0
10
119.70625
20
-60.175
40
0.5
50
90
51
180
0
ARC
8
0
10
132.70625
20
-60.175
40
0.5
50
0
51
90
0
ARC
8
0
10
119.70625
20
-73.175
40
0.5
50
180
51
270
0
ARC
8
0
10
132.70625
20
-73.175
40
0.5
50
270
51
0
0
LINE
8
0
10
111.26825
20
-60.675
11
117.26825
21
-60.675
0
LINE
8
0
10
111.26825
20
-75.675
11
117.26825
21
-75.675
0
LINE
8
0
10
110.76825
20
-61.175
11
110.76825
21
-75.175
0
LINE
8
0
10
117.76825
20
-61.175
11
117.76825
21
-75.175
0
ARC
8
0
10
111.26825
20
-61.175
40
0.5
50
90
51
180
0
ARC
8
0
10
117.26825
20
-61.175
40
0.5
50
0
51
90
0
ARC
8
0
10
111.26825
20
-75.175
40
0.5
50
180
51
270
0
ARC
8
0
10
117.26825
20
-75.175
40
0.5
50
270
51
0
0
LINE
8
0
10
135.14425
20
-60.675
11
141.14425
21
-60.675
0
LINE
8
0
10
135.14425
20
-75.675
11
141.14425
21
-75.675
0
LINE
8
0
10
134.64425
20
-61.175
11
134.64425
21
-75.175
0
LINE
8
0
10
141.64425
20
-61.175
11
141.64425
21
-75.175
0
ARC
8
0
10
135.14425
20
-61.175
40
0.5
50
90
51
180
0
ARC
8
0
10
141.14425
20
-61.175
40
0.5
50
0
51
90
0
ARC
8
0
10
135.14425
20
-75.175
40
0.5
50
180
51
270
0
ARC
8
0
10
141.14425
20
-75.175
40
0.5
50
270
51
0
0
LINE
8
0
10
150.6625
20
-59.675
11
163.6625
21
-59.675
0
LINE
8
0
10
150.6625
20
-73.675
11
163.6625
21
-73.675
0
LINE
8
0
10
150.1625
20
-60.175
11
150.1625
21
-73.175
0
LINE
8
0
10
164.1625
20
-60.175
11
164.1625
21
-73.175
0
ARC
8
0
10
150.6625
20
-60.175
40
0.5
50
90
51
180
0
ARC
8
0
10
163.6625
20
-60.175
40
0.5
50
0
51
90
0
ARC
8
0
10
150.6625
20
-73.175
40
0.5
50
180
51
270
0
ARC
8
0
10
163.6625
20
-73.175
40
0.5
50
270
51
0
0
LINE
8
0
10
169.7125
20
-59.675
11
182.7125
21
-59.675
0
LINE
8
0
10
169.7125
20
-73.675
11
182.7125
21
-73.675
0
LINE
8
0
10
169.2125
20
-60.175
11
169.2125
21
-73.175
0
LINE
8
0
10
183.2125
20
-60.175
11
183.2125
21
-73.175
0
ARC
8
0
10
169.7125
20
-60.175
40
0.5
50
90
51
180
0
ARC
8
0
10
182.7125
20
-60.175
40
0.5
50
0
51
90
0
ARC
8
0
10
169.7125
20
-73.175
40
0.5
50
180
51
270
0
ARC
8
0
10
182.7125
20
-73.175
40
0.5
50
270
51
0
0
LINE
8
0
10
188.7625
20
-59.675
11
201.7625
21
-59.675
0
LINE
8
0
10
188.7625
20
-73.675
11
201.7625
21
-73.675
0
LINE
8
0
10
188.2625
20
-60.175
11
188.2625
21
-73.175
0
LINE
8
0
10
202.2625
20
-60.175
11
202.2625
21
-73.175
0
ARC
8
0
10
188.7625
20
-60.175
40
0.5
50
90
51
180
0
ARC
8
0
10
201.7625
20
-60.175
40
0.5
50
0
51
90
0
ARC
8
0
10
188.7625
20
-73.175
40
0.5
50
180
51
270
0
ARC
8
0
10
201.7625
20
-73.175
40
0.5
50
270
51
0
0
LINE
8
0
10
207.8125
20
-59.675
11
220.8125
21
-59.675
0
LINE
8
0
10
207.8125
20
-73.675
11
220.8125
21
-73.675
0
LINE
8
0
10
207.3125
20
-60.175
11
207.3125
21
-73.175
0
LINE
8
0
10
221.3125
20
-60.175
11
221.3125
21
-73.175
0
ARC
8
0
10
207.8125
20
-60.175
40
0.5
50
90
51
180
0
ARC
8
0
10
220.8125
20
-60.175
40
0.5
50
0
51
90
0
ARC
8
0
10
207.8125
20
-73.175
40
0.5
50
180
51
270
0
ARC
8
0
10
220.8125
20
-73.175
40
0.5
50
270
51
0
0
LINE
8
0
10
226.8625
20
-59.675
11
239.8625
21
-59.675
0
LINE
8
0
10
226.8625
20
-73.675
11
239.8625
21
-73.675
0
LINE
8
0
10
226.3625
20
-60.175
11
226.3625
21
-73.175
0
LINE
8
0
10
240.3625
20
-60.175
11
240.3625
21
-73.175
0
ARC
8
0
10
226.8625
20
-60.175
40
0.5
50
90
51
180
0
ARC
8
0
10
239.8625
20
-60.175
40
0.5
50
0
51
90
0
ARC
8
0
10
226.8625
20
-73.175
40
0.5
50
180
51
270
0
ARC
8
0
10
239.8625
20
-73.175
40
0.5
50
270
51
0
0
LINE
8
0
10
245.9125
20
-59.675
11
258.9125
21
-59.675
0
LINE
8
0
10
245.9125
20
-73.675
11
258.9125
21
-73.675
0
LINE
8
0
10
245.4125
20
-60.175
11
245.4125
21
-73.175
0
LINE
8
0
10
259.4125
20
-60.175
11
259.4125
21
-73.175
0
ARC
8
0
10
245.9125
20
-60.175
40
0.5
50
90
51
180
0
ARC
8
0
10
258.9125
20
-60.175
40
0.5
50
0
51
90
0
ARC
8
0
10
245.9125
20
-73.175
40
0.5
50
180
51
270
0
ARC
8
0
10
258.9125
20
-73.175
40
0.5
50
270
51
0
0
LINE
8
0
10
264.9625
20
-59.675
11
277.9625
21
-59.675
0
LINE
8
0
10
264.9625
20
-73.675
11
277.9625
21
-73.675
0
LINE
8
0
10
264.4625
20
-60.175
11
264.4625
21
-73.175
0
LINE
8
0
10
278.4625
20
-60.175
11
278.4625
21
-73.175
0
ARC
8
0
10
264.9625
20
-60.175
40
0.5
50
90
51
180
0
ARC
8
0
10
277.9625
20
-60.175
40
0.5
50
0
51
90
0
ARC
8
0
10
264.9625
20
-73.175
40
0.5
50
180
51
270
0
ARC
8
0
10
277.9625
20
-73.175
40
0.5
50
270
51
0
0
LINE
8
0
10
284.0125
20
-59.675
11
297.0125
21
-59.675
0
LINE
8
0
10
284.0125
20
-73.675
11
297.0125
21
-73.675
0
LINE
8
0
10
283.5125
20
-60.175
11
283.5125
21
-73.175
0
LINE
8
0
10
297.5125
20
-60.175
11
297.5125
21
-73.175
0
ARC
8
0
10
284.0125
20
-60.175
40
0.5
50
90
51
180
0
ARC
8
0
10
297.0125
20
-60.175
40
0.5
50
0
51
90
0
ARC
8
0
10
284.0125
20
-73.175
40
0.5
50
180
51
270
0
ARC
8
0
10
297.0125
20
-73.175
40
0.5
50
270
51
0
0
LINE
8
0
10
303.0625
20
-59.675
11
316.0625
21
-59.675
0
LINE
8
0
10
303.0625
20
-73.675
11
316.0625
21
-73.675
0
LINE
8
0
10
302.5625
20
-60.175
11
302.5625
21
-73.175
0
LINE
8
0
10
316.5625
20
-60.175
11
316.5625
21
-73.175
0
ARC
8
0
10
303.0625
20
-60.175
40
0.5
50
90
51
180
0
ARC
8
0
10
316.0625
20
-60.175
40
0.5
50
0
51
90
0
ARC
8
0
10
303.0625
20
-73.175
40
0.5
50
180
51
270
0
ARC
8
0
10
316.0625
20
-73.175
40
0.5
50
270
51
0
0
LINE
8
0
10
322.1125
20
-59.675
11
335.1125
21
-59.675
0
LINE
8
0
10
322.1125
20
-73.675
11
335.1125
21
-73.675
0
LINE
8
0
10
321.6125
20
-60.175
11
321.6125
21
-73.175
0
LINE
8
0
10
335.6125
20
-60.175
11
335.6125
21
-73.175
0
ARC
8
0
10
322.1125
20
-60.175
40
0.5
50
90
51
180
0
ARC
8
0
10
335.1125
20
-60.175
40
0.5
50
0
51
90
0
ARC
8
0
10
322.1125
20
-73.175
40
0.5
50
180
51
270
0
ARC
8
0
10
335.1125
20
-73.175
40
0.5
50
270
51
0
0
LINE
8
0
10
357.83125
20
-59.675
11
370.83125
21
-59.675
0
LINE
8
0
10
357.83125
20
-73.675
11
370.83125
21
-73.675
0
LINE
8
0
10
357.33125
20
-60.175
11
357.33125
21
-73.175
0
LINE
8
0
10
371.33125
20
-60.175
11
371.33125
21
-73.175
0
ARC
8
0
10
357.83125
20
-60.175
40
0.5
50
90
51
180
0
ARC
8
0
10
370.83125
20
-60.175
40
0.5
50
0
51
90
0
ARC
8
0
10
357.83125
20
-73.175
40
0.5
50
180
51
270
0
ARC
8
0
10
370.83125
20
-73.175
40
0.5
50
270
51
0
0
LINE
8
0
10
349.39325
20
-60.675
11
355.39325
21
-60.675
0
LINE
8
0
10
349.39325
20
-75.675
11
355.39325
21
-75.675
0
LINE
8
0
10
348.89325
20
-61.175
11
348.89325
21
-75.175
0
LINE
8
0
10
355.89325
20
-61.175
11
355.89325
21
-75.175
0
ARC
8
0
10
349.39325
20
-61.175
40
0.5
50
90
51
180
0
ARC
8
0
10
355.39325
20
-61.175
40
0.5
50
0
51
90
0
ARC
8
0
10
349.39325
20
-75.175
40
0.5
50
180
51
270
0
ARC
8
0
10
355.39325
20
-75.175
40
0.5
50
270
51
0
0
LINE
8
0
10
373.26925
20
-60.675
11
379.26925
21
-60.675
0
LINE
8
0
10
373.26925
20
-75.675
11
379.26925
21
-75.675
0
LINE
8
0
10
372.76925
20
-61.175
11
372.76925
21
-75.175
0
LINE
8
0
10
379.76925
20
-61.175
11
379.76925
21
-75.175
0
ARC
8
0
10
373.26925
20
-61.175
40
0.5
50
90
51
180
0
ARC
8
0
10
379.26925
20
-61.175
40
0.5
50
0
51
90
0
ARC
8
0
10
373.26925
20
-75.175
40
0.5
50
180
51
270
0
ARC
8
0
10
379.26925
20
-75.175
40
0.5
50
270
51
0
0
LINE
8
0
10
83.9875
20
-64.4375
11
96.9875
21
-64.4375
0
LINE
8
0
10
83.9875
20
-78.4375
11
96.9875
21
-78.4375
0
LINE
8
0
10
83.4875
20
-64.9375
11
83.4875
21
-77.9375
0
LINE
8
0
10
97.4875
20
-64.9375
11
97.4875
21
-77.9375
0
ARC
8
0
10
83.9875
20
-64.9375
40
0.5
50
90
51
180
0
ARC
8
0
10
96.9875
20
-64.9375
40
0.5
50
0
51
90
0
ARC
8
0
10
83.9875
20
-77.9375
40
0.5
50
180
51
270
0
ARC
8
0
10
96.9875
20
-77.9375
40
0.5
50
270
51
0
0
LINE
8
0
10
22.075
20
-78.725
11
35.075
21
-78.725
0
LINE
8
0
10
22.075
20
-92.725
11
35.075
21
-92.725
0
LINE
8
0
10
21.575
20
-79.225
11
21.575
21
-92.225
0
LINE
8
0
10
35.575
20
-79.225
11
35.575
21
-92.225
0
ARC
8
0
10
22.075
20
-79.225
40
0.5
50
90
51
180
0
ARC
8
0
10
35.075
20
-79.225
40
0.5
50
0
51
90
0
ARC
8
0
10
22.075
20
-92.225
40
0.5
50
180
51
270
0
ARC
8
0
10
35.075
20
-92.225
40
0.5
50
270
51
0
0
LINE
8
0
10
41.125
20
-78.725
11
54.125
21
-78.725
0
LINE
8
0
10
41.125
20
-92.725
11
54.125
21
-92.725
0
LINE
8
0
10
40.625
20
-79.225
11
40.625
21
-92.225
0
LINE
8
0
10
54.625
20
-79.225
11
54.625
21
-92.225
0
ARC
8
0
10
41.125
20
-79.225
40
0.5
50
90
51
180
0
ARC
8
0
10
54.125
20
-79.225
40
0.5
50
0
51
90
0
ARC
8
0
10
41.125
20
-92.225
40
0.5
50
180
51
270
0
ARC
8
0
10
54.125
20
-92.225
40
0.5
50
270
51
0
0
LINE
8
0
10
129.23125
20
-78.725
11
142.23125
21
-78.725
0
LINE
8
0
10
129.23125
20
-92.725
11
142.23125
21
-92.725
0
LINE
8
0
10
128.73125
20
-79.225
11
128.73125
21
-92.225
0
LINE
8
0
10
142.73125
20
-79.225
11
142.73125
21
-92.225
0
ARC
8
0
10
129.23125
20
-79.225
40
0.5
50
90
51
180
0
ARC
8
0
10
142.23125
20
-79.225
40
0.5
50
0
51
90
0
ARC
8
0
10
129.23125
20
-92.225
40
0.5
50
180
51
270
0
ARC
8
0
10
142.23125
20
-92.225
40
0.5
50
270
51
0
0
LINE
8
0
10
155.425
20
-78.725
11
168.425
21
-78.725
0
LINE
8
0
10
155.425
20
-92.725
11
168.425
21
-92.725
0
LINE
8
0
10
154.925
20
-79.225
11
154.925
21
-92.225
0
LINE
8
0
10
168.925
20
-79.225
11
168.925
21
-92.225
0
ARC
8
0
10
155.425
20
-79.225
40
0.5
50
90
51
180
0
ARC
8
0
10
168.425
20
-79.225
40
0.5
50
0
51
90
0
ARC
8
0
10
155.425
20
-92.225
40
0.5
50
180
51
270
0
ARC
8
0
10
168.425
20
-92.225
40
0.5
50
270
51
0
0
LINE
8
0
10
193.525
20
-78.725
11
206.525
21
-78.725
0
LINE
8
0
10
193.525
20
-92.725
11
206.525
21
-92.725
0
LINE
8
0
10
193.025
20
-79.225
11
193.025
21
-92.225
0
LINE
8
0
10
207.025
20
-79.225
11
207.025
21
-92.225
0
ARC
8
0
10
193.525
20
-79.225
40
0.5
50
90
51
180
0
ARC
8
0
10
206.525
20
-79.225
40
0.5
50
0
51
90
0
ARC
8
0
10
193.525
20
-92.225
40
0.5
50
180
51
270
0
ARC
8
0
10
206.525
20
-92.225
40
0.5
50
270
51
0
0
LINE
8
0
10
185.087
20
-79.725
11
191.087
21
-79.725
0
LINE
8
0
10
185.087
20
-94.725
11
191.087
21
-94.725
0
LINE
8
0
10
184.587
20
-80.225
11
184.587
21
-94.225
0
LINE
8
0
10
191.587
20
-80.225
11
191.587
21
-94.225
0
ARC
8
0
10
185.087
20
-80.225
40
0.5
50
90
51
180
0
ARC
8
0
10
191.087
20
-80.225
40
0.5
50
0
51
90
0
ARC
8
0
10
185.087
20
-94.225
40
0.5
50
180
51
270
0
ARC
8
0
10
191.087
20
-94.225
40
0.5
50
270
51
0
0
LINE
8
0
10
208.963
20
-79.725
11
214.963
21
-79.725
0
LINE
8
0
10
208.963
20
-94.725
11
214.963
21
-94.725
0
LINE
8
0
10
208.463
20
-80.225
11
208.463
21
-94.225
0
LINE
8
0
10
215.463
20
-80.225
11
215.463
21
-94.225
0
ARC
8
0
10
208.963
20
-80.225
40
0.5
50
90
51
180
0
ARC
8
0
10
214.963
20
-80.225
40
0.5
50
0
51
90
0
ARC
8
0
10
208.963
20
-94.225
40
0.5
50
180
51
270
0
ARC
8
0
10
214.963
20
-94.225
40
0.5
50
270
51
0
0
LINE
8
0
10
234.00625
20
-78.725
11
247.00625
21
-78.725
0
LINE
8
0
10
234.00625
20
-92.725
11
247.00625
21
-92.725
0
LINE
8
0
10
233.50625
20
-79.225
11
233.50625
21
-92.225
0
LINE
8
0
10
247.50625
20
-79.225
11
247.50625
21
-92.225
0
ARC
8
0
10
234.00625
20
-79.225
40
0.5
50
90
51
180
0
ARC
8
0
10
247.00625
20
-79.225
40
0.5
50
0
51
90
0
ARC
8
0
10
234.00625
20
-92.225
40
0.5
50
180
51
270
0
ARC
8
0
10
247.00625
20
-92.225
40
0.5
50
270
51
0
0
LINE
8
0
10
276.86875
20
-78.725
11
289.86875
21
-78.725
0
LINE
8
0
10
276.86875
20
-92.725
11
289.86875
21
-92.725
0
LINE
8
0
10
276.36875
20
-79.225
11
276.36875
21
-92.225
0
LINE
8
0
10
290.36875
20
-79.225
11
290.36875
21
-92.225
0
ARC
8
0
10
276.86875
20
-79.225
40
0.5
50
90
51
180
0
ARC
8
0
10
289.86875
20
-79.225
40
0.5
50
0
51
90
0
ARC
8
0
10
276.86875
20
-92.225
40
0.5
50
180
51
270
0
ARC
8
0
10
289.86875
20
-92.225
40
0.5
50
270
51
0
0
LINE
8
0
10
268.43075
20
-79.725
11
274.43075
21
-79.725
0
LINE
8
0
10
268.43075
20
-94.725
11
274.43075
21
-94.725
0
LINE
8
0
10
267.93075
20
-80.225
11
267.93075
21
-94.225
0
LINE
8
0
10
274.93075
20
-80.225
11
274.93075
21
-94.225
0
ARC
8
0
10
268.43075
20
-80.225
40
0.5
50
90
51
180
0
ARC
8
0
10
274.43075
20
-80.225
40
0.5
50
0
51
90
0
ARC
8
0
10
268.43075
20
-94.225
40
0.5
50
180
51
270
0
ARC
8
0
10
274.43075
20
-94.225
40
0.5
50
270
51
0
0
LINE
8
0
10
292.30675
20
-79.725
11
298.30675
21
-79.725
0
LINE
8
0
10
292.30675
20
-94.725
11
298.30675
21
-94.725
0
LINE
8
0
10
291.80675
20
-80.225
11
291.80675
21
-94.225
0
LINE
8
0
10
298.80675
20
-80.225
11
298.80675
21
-94.225
0
ARC
8
0
10
292.30675
20
-80.225
40
0.5
50
90
51
180
0
ARC
8
0
10
298.30675
20
-80.225
40
0.5
50
0
51
90
0
ARC
8
0
10
292.30675
20
-94.225
40
0.5
50
180
51
270
0
ARC
8
0
10
298.30675
20
-94.225
40
0.5
50
270
51
0
0
LINE
8
0
10
317.35
20
-78.725
11
330.35
21
-78.725
0
LINE
8
0
10
317.35
20
-92.725
11
330.35
21
-92.725
0
LINE
8
0
10
316.85
20
-79.225
11
316.85
21
-92.225
0
LINE
8
0
10
330.85
20
-79.225
11
330.85
21
-92.225
0
ARC
8
0
10
317.35
20
-79.225
40
0.5
50
90
51
180
0
ARC
8
0
10
330.35
20
-79.225
40
0.5
50
0
51
90
0
ARC
8
0
10
317.35
20
-92.225
40
0.5
50
180
51
270
0
ARC
8
0
10
330.35
20
-92.225
40
0.5
50
270
51
0
0
LINE
8
0
10
343.54375
20
-78.725
11
356.54375
21
-78.725
0
LINE
8
0
10
343.54375
20
-92.725
11
356.54375
21
-92.725
0
LINE
8
0
10
343.04375
20
-79.225
11
343.04375
21
-92.225
0
LINE
8
0
10
357.04375
20
-79.225
11
357.04375
21
-92.225
0
ARC
8
0
10
343.54375
20
-79.225
40
0.5
50
90
51
180
0
ARC
8
0
10
356.54375
20
-79.225
40
0.5
50
0
51
90
0
ARC
8
0
10
343.54375
20
-92.225
40
0.5
50
180
51
270
0
ARC
8
0
10
356.54375
20
-92.225
40
0.5
50
270
51
0
0
LINE
8
0
10
369.7375
20
-78.725
11
382.7375
21
-78.725
0
LINE
8
0
10
369.7375
20
-92.725
11
382.7375
21
-92.725
0
LINE
8
0
10
369.2375
20
-79.225
11
369.2375
21
-92.225
0
LINE
8
0
10
383.2375
20
-79.225
11
383.2375
21
-92.225
0
ARC
8
0
10
369.7375
20
-79.225
40
0.5
50
90
51
180
0
ARC
8
0
10
382.7375
20
-79.225
40
0.5
50
0
51
90
0
ARC
8
0
10
369.7375
20
-92.225
40
0.5
50
180
51
270
0
ARC
8
0
10
382.7375
20
-92.225
40
0.5
50
270
51
0
0
LINE
8
0
10
64.9375
20
-83.4875
11
77.9375
21
-83.4875
0
LINE
8
0
10
64.9375
20
-97.4875
11
77.9375
21
-97.4875
0
LINE
8
0
10
64.4375
20
-83.9875
11
64.4375
21
-96.9875
0
LINE
8
0
10
78.4375
20
-83.9875
11
78.4375
21
-96.9875
0
ARC
8
0
10
64.9375
20
-83.9875
40
0.5
50
90
51
180
0
ARC
8
0
10
77.9375
20
-83.9875
40
0.5
50
0
51
90
0
ARC
8
0
10
64.9375
20
-96.9875
40
0.5
50
180
51
270
0
ARC
8
0
10
77.9375
20
-96.9875
40
0.5
50
270
51
0
0
LINE
8
0
10
83.9875
20
-83.4875
11
96.9875
21
-83.4875
0
LINE
8
0
10
83.9875
20
-97.4875
11
96.9875
21
-97.4875
0
LINE
8
0
10
83.4875
20
-83.9875
11
83.4875
21
-96.9875
0
LINE
8
0
10
97.4875
20
-83.9875
11
97.4875
21
-96.9875
0
ARC
8
0
10
83.9875
20
-83.9875
40
0.5
50
90
51
180
0
ARC
8
0
10
96.9875
20
-83.9875
40
0.5
50
0
51
90
0
ARC
8
0
10
83.9875
20
-96.9875
40
0.5
50
180
51
270
0
ARC
8
0
10
96.9875
20
-96.9875
40
0.5
50
270
51
0
0
LINE
8
0
10
103.0375
20
-83.4875
11
116.0375
21
-83.4875
0
LINE
8
0
10
103.0375
20
-97.4875
11
116.0375
21
-97.4875
0
LINE
8
0
10
102.5375
20
-83.9875
11
102.5375
21
-96.9875
0
LINE
8
0
10
116.5375
20
-83.9875
11
116.5375
21
-96.9875
0
ARC
8
0
10
103.0375
20
-83.9875
40
0.5
50
90
51
180
0
ARC
8
0
10
116.0375
20
-83.9875
40
0.5
50
0
51
90
0
ARC
8
0
10
103.0375
20
-96.9875
40
0.5
50
180
51
270
0
ARC
8
0
10
116.0375
20
-96.9875
40
0.5
50
270
51
0
0
LINE
8
0
10
0
20
-100.0125
11
390.525
21
-100.0125
0
LINE
8
0
10
0
20
0
11
390.525
21
0
0
LINE
8
0
10
0
20
-100.0125
11
0
21
0
0
LINE
8
0
10
390.525
20
-100.0125
11
390.525
21
0
0
ENDSEC
0
EOF